<svg width="64" height="64" viewBox="0 0 64 64" fill="none" xmlns="http://www.w3.org/2000/svg">
  <rect width="64" height="64" rx="20" fill="url(#paint0_linear_1_2)"/>
  <rect x="6" y="6" width="52" height="52" rx="16" fill="url(#paint1_radial_1_2)" fill-opacity="0.95"/>
  <path d="M24.0625 21.625C24.0625 20.6674 24.8386 19.8913 25.7962 19.8913H39.6625C40.6201 19.8913 41.3962 20.6674 41.3962 21.625C41.3962 22.5826 40.6201 23.3588 39.6625 23.3588H33.929V43.1088C33.929 44.0664 33.1529 44.8425 32.1953 44.8425C31.2377 44.8425 30.4615 44.0664 30.4615 43.1088V23.3588H25.7962C24.8386 23.3588 24.0625 22.5826 24.0625 21.625Z" fill="#245C9A"/>
  <path d="M18.4663 33.8912C18.4663 33.0096 19.1811 32.2948 20.0627 32.2948H44.129C45.0106 32.2948 45.7254 33.0096 45.7254 33.8912C45.7254 34.7728 45.0106 35.4875 44.129 35.4875H20.0627C19.1811 35.4875 18.4663 34.7728 18.4663 33.8912Z" fill="#6CB6F0"/>
  <defs>
    <linearGradient id="paint0_linear_1_2" x1="8" y1="4.5" x2="60" y2="64" gradientUnits="userSpaceOnUse">
      <stop stop-color="#FDFEFF"/>
      <stop offset="1" stop-color="#E7F1FA"/>
    </linearGradient>
    <radialGradient id="paint1_radial_1_2" cx="0" cy="0" r="1" gradientUnits="userSpaceOnUse" gradientTransform="translate(32 18.5) rotate(90) scale(39.5 34.4722)">
      <stop stop-color="#FFFFFF"/>
      <stop offset="1" stop-color="#ECF5FD"/>
    </radialGradient>
  </defs>
</svg>
